HIERARCHY
ROOT joint_Root
{
	OFFSET 0.0 0.0 0.0
	CHANNELS 6 Xposition Yposition Zposition Zrotation Xrotation Yrotation 
	JOINT Hips
	{
		OFFSET -0.726466 93.3139 -2.00062
		CHANNELS 6 Xposition Yposition Zposition Zrotation Xrotation Yrotation 
		JOINT Spine
		{
			OFFSET 15.7357 0.0 0.0
			CHANNELS 6 Xposition Yposition Zposition Zrotation Xrotation Yrotation 
			JOINT Chest
			{
				OFFSET 8.98455 -0.406207 0.0
				CHANNELS 6 Xposition Yposition Zposition Zrotation Xrotation Yrotation 
				JOINT Neck
				{
					OFFSET 16.3773 0.0 0.0
					CHANNELS 6 Xposition Yposition Zposition Zrotation Xrotation Yrotation 
					JOINT Head
					{
						OFFSET 6.45672 0.0 0.0
						CHANNELS 6 Xposition Yposition Zposition Zrotation Xrotation Yrotation 
						End Site
						{
							OFFSET 0.0 0.0 0.0
						}
					}
				}
				JOINT Shoulder_L
				{
					OFFSET 12.9942 -0.242716 4.98039
					CHANNELS 6 Xposition Yposition Zposition Zrotation Xrotation Yrotation 
					JOINT UpperArm_L
					{
						OFFSET 5.34809 0.0 0.0
						CHANNELS 6 Xposition Yposition Zposition Zrotation Xrotation Yrotation 
						JOINT LowerArm_L
						{
							OFFSET 24.3286 1.87007e-05 0.0
							CHANNELS 6 Xposition Yposition Zposition Zrotation Xrotation Yrotation 
							JOINT Hand_L
							{
								OFFSET 22.2916 0.0 0.0
								CHANNELS 6 Xposition Yposition Zposition Zrotation Xrotation Yrotation 
								End Site
								{
									OFFSET 0.0 0.0 0.0
								}
							}
						}
					}
				}
				JOINT Shoulder_R
				{
					OFFSET 12.9945 -0.242716 -4.98039
					CHANNELS 6 Xposition Yposition Zposition Zrotation Xrotation Yrotation 
					JOINT UpperArm_R
					{
						OFFSET -5.34813 0.0 0.0
						CHANNELS 6 Xposition Yposition Zposition Zrotation Xrotation Yrotation 
						JOINT LowerArm_R
						{
							OFFSET -24.3289 0.000322201 0.0
							CHANNELS 6 Xposition Yposition Zposition Zrotation Xrotation Yrotation 
							JOINT Hand_R
							{
								OFFSET -22.2915 -0.000108084 0.0
								CHANNELS 6 Xposition Yposition Zposition Zrotation Xrotation Yrotation 
								End Site
								{
									OFFSET 0.0 0.0 0.0
								}
							}
						}
					}
				}
			}
		}
		JOINT UpperLeg_L
		{
			OFFSET -2.19248 -6.46944 0.0
			CHANNELS 6 Xposition Yposition Zposition Zrotation Xrotation Yrotation 
			JOINT LowerLeg_L
			{
				OFFSET 39.0811 0.0 -1.23785e-05
				CHANNELS 6 Xposition Yposition Zposition Zrotation Xrotation Yrotation 
				JOINT Foot_L
				{
					OFFSET 40.9854 0.0 -1.26872e-05
					CHANNELS 6 Xposition Yposition Zposition Zrotation Xrotation Yrotation 
					JOINT Toes_L
					{
						OFFSET 11.7543 0.0 0.0
						CHANNELS 6 Xposition Yposition Zposition Zrotation Xrotation Yrotation 
						End Site
						{
							OFFSET 0.0 0.0 0.0
						}
					}
				}
			}
		}
		JOINT UpperLeg_R
		{
			OFFSET -2.19251 6.46944 0.0
			CHANNELS 6 Xposition Yposition Zposition Zrotation Xrotation Yrotation 
			JOINT LowerLeg_R
			{
				OFFSET -39.0811 -0.00228153 -0.0401928
				CHANNELS 6 Xposition Yposition Zposition Zrotation Xrotation Yrotation 
				JOINT Foot_R
				{
					OFFSET -40.9854 0.0 0.0
					CHANNELS 6 Xposition Yposition Zposition Zrotation Xrotation Yrotation 
					JOINT Toes_R
					{
						OFFSET -11.7543 0.0 0.0
						CHANNELS 6 Xposition Yposition Zposition Zrotation Xrotation Yrotation 
						End Site
						{
							OFFSET 0.0 0.0 0.0
						}
					}
				}
			}
		}
	}
}
MOTION
Frames:	4
Frame Time:	0.0333333
0.000000 0.000000 0.000000 0.000000 0.000000 -0.000000 0.648918 91.961100 -0.907768 87.721800 -4.763040 6.937520 15.735700 0.000005 -0.000001 93.492400 84.454800 -95.764500 8.984550 -0.406207 -0.000000 3.323170 0.762810 -4.561450 16.377300 -0.000001 -0.000001 1.580140 -2.336210 3.561840 6.456720 -0.000001 -0.000000 -2.304670 -0.510846 -3.427690 12.994200 -0.242716 4.980390 -88.407000 -4.901140 -71.969400 5.348090 -0.000007 -0.000001 -3.241760 77.609100 -44.398100 24.328600 0.000019 0.000005 11.492400 -0.101411 -90.498800 22.291600 -0.000001 0.000005 33.221900 5.617290 -29.805600 12.994500 -0.242716 -4.980390 93.632800 -7.851820 -65.073500 -5.348130 -0.000001 -0.000004 -64.805700 -52.551800 -121.086000 -24.328900 0.000322 -0.000009 1.925160 2.812310 -34.430400 -22.291500 -0.000108 -0.000004 18.803900 5.348620 -1.332400 -2.192480 -6.469440 -0.000000 -169.131000 -20.340900 -1.338580 39.081100 -0.000007 -0.000012 -0.184143 0.396782 24.895800 40.985400 -0.000006 -0.000013 -5.447070 -3.072390 -64.215800 11.754300 -0.000000 0.000003 -0.000156 -0.001502 -16.634600 -2.192510 6.469440 -0.000001 172.711000 19.876700 179.908000 -39.081100 -0.002282 -0.040193 0.028829 -0.064554 21.562800 -40.985400 0.000008 0.000006 -1.392300 5.185390 -61.852100 -11.754300 -0.000006 -0.000006 -0.003149 -0.042281 -18.292700
0.000000 0.000000 0.000000 0.000000 0.000000 -0.000000 0.571922 91.948900 -0.869112 87.689600 -4.778500 6.974690 15.735700 0.000005 -0.000001 93.584800 84.435300 -95.763800 8.984550 -0.406207 -0.000000 3.360420 0.778750 -4.376140 16.377300 -0.000001 -0.000001 1.656160 -2.611400 3.782810 6.456720 -0.000001 -0.000000 -2.416350 -0.771654 -3.374830 12.994200 -0.242716 4.980390 -88.414600 -4.898710 -72.041800 5.348090 -0.000007 -0.000001 -4.022380 77.625000 -43.726600 24.328600 0.000019 0.000005 11.539800 -0.094358 -90.462200 22.291600 -0.000001 0.000005 33.168600 5.617350 -29.800900 12.994500 -0.242716 -4.980390 93.615000 -7.705060 -64.769200 -5.348130 -0.000001 -0.000004 -62.903200 -53.000200 -122.590000 -24.328900 0.000322 -0.000009 2.037940 2.302350 -41.557700 -22.291500 -0.000108 -0.000004 19.532900 5.409870 -3.257780 -2.192480 -6.469440 -0.000000 -169.020000 -20.264000 -1.284140 39.081100 -0.000007 -0.000012 -0.186819 0.401848 24.934000 40.985400 -0.000006 -0.000013 -5.529280 -3.107450 -64.249100 11.754300 -0.000000 0.000003 -0.000160 -0.001530 -16.635600 -2.192510 6.469440 -0.000001 172.825000 19.648900 179.935000 -39.081100 -0.002282 -0.040193 0.030599 -0.068748 21.644200 -40.985400 0.000008 0.000006 -1.274050 4.986300 -62.010200 -11.754300 -0.000006 -0.000006 -0.003140 -0.042176 -18.288400
0.000000 0.000000 0.000000 0.000000 0.000000 -0.000000 0.482447 91.942500 -0.837368 87.672400 -4.718850 7.024230 15.735700 0.000005 -0.000001 93.463000 84.418600 -95.605400 8.984550 -0.406207 -0.000000 3.394440 0.755123 -4.302610 16.377300 -0.000001 -0.000001 1.821640 -2.829180 4.006010 6.456720 -0.000001 -0.000000 -2.510610 -0.883463 -3.267380 12.994200 -0.242716 4.980390 -88.400500 -4.953610 -72.079900 5.348090 -0.000007 -0.000001 -4.615190 77.658800 -43.210500 24.328600 0.000019 0.000005 11.511300 -0.096633 -90.474600 22.291600 -0.000001 0.000005 33.003500 5.618450 -29.726800 12.994500 -0.242716 -4.980390 93.612000 -7.573630 -64.408300 -5.348130 -0.000001 -0.000004 -62.414300 -52.408200 -124.843000 -24.328900 0.000322 -0.000009 1.728080 1.654190 -46.290800 -22.291500 -0.000108 -0.000004 19.837400 5.471100 -5.410840 -2.192480 -6.469440 -0.000000 -168.925000 -20.203300 -1.217200 39.081100 -0.000007 -0.000012 -0.187082 0.402469 24.931000 40.985400 -0.000006 -0.000013 -5.596240 -3.110740 -64.244400 11.754300 -0.000000 0.000003 -0.000144 -0.001404 -16.631000 -2.192510 6.469440 -0.000001 172.890000 19.535900 179.991000 -39.081100 -0.002282 -0.040193 0.029753 -0.066395 21.709400 -40.985400 0.000008 0.000006 -1.339890 4.818320 -62.080000 -11.754300 -0.000006 -0.000006 -0.003189 -0.042720 -18.310500
0.000000 0.000000 0.000000 0.000000 0.000000 -0.000000 0.385027 91.929500 -0.802127 87.628900 -4.633050 7.099990 15.735700 0.000005 -0.000001 93.494600 84.401000 -95.638400 8.984550 -0.406207 -0.000000 3.429190 0.762783 -4.305850 16.377300 -0.000001 -0.000001 1.988000 -3.046300 4.315160 6.456720 -0.000001 -0.000000 -2.457440 -1.040480 -3.213860 12.994200 -0.242716 4.980390 -88.395000 -4.987550 -72.135700 5.348090 -0.000007 -0.000001 -4.622730 77.681300 -43.240200 24.328600 0.000019 0.000005 11.475700 -0.106484 -90.524600 22.291600 -0.000001 0.000005 33.022100 5.620440 -29.590700 12.994500 -0.242716 -4.980390 93.698800 -7.648760 -64.094000 -5.348130 -0.000001 -0.000004 -62.787500 -51.153700 -126.691000 -24.328900 0.000322 -0.000009 0.661301 0.596736 -47.994500 -22.291500 -0.000108 -0.000004 20.233900 5.509960 -6.939190 -2.192480 -6.469440 -0.000000 -168.775000 -20.195700 -1.140680 39.081100 -0.000007 -0.000012 -0.187273 0.401886 24.985000 40.985400 -0.000006 -0.000013 -5.640610 -2.987380 -64.266000 11.754300 -0.000000 0.000003 -0.000145 -0.001413 -16.631300 -2.192510 6.469440 -0.000001 172.966000 19.483100 -179.921000 -39.081100 -0.002282 -0.040193 0.029907 -0.066479 21.799600 -40.985400 0.000008 0.000006 -1.299620 4.694370 -62.202100 -11.754300 -0.000006 -0.000006 -0.003118 -0.041931 -18.278400
